<?xml version="1.0" encoding="iso-8859-1"?><svg xmlns="http://www.w3.org/2000/svg" xmlns:xlink="http://www.w3.org/1999/xlink" viewBox="0 0 188.149 188.149"><defs><circle id="a" cx="94.075" cy="94.075" r="94.074"/></defs><use xlink:href="#a" overflow="visible" fill="#4ac8eb"/><clipPath id="b"><use xlink:href="#a" overflow="visible"/></clipPath><g clip-path="url(#b)"><path d="M148.572 197.629v.01H39.507v-.01c0-15.124 6.147-28.809 16.09-38.679.463-.463.926-.905 1.408-1.347a54.062 54.062 0 014.493-3.732 55.735 55.735 0 013.177-2.189 49.617 49.617 0 013.331-1.975c.021-.021.042-.021.042-.021.441-.247.873-.493 1.306-.761a31.389 31.389 0 003.69-2.56 34.567 34.567 0 0011.001-15.34v-.011a34.296 34.296 0 002.016-11.639l16.121.072c0 4.04.688 7.927 1.964 11.525a34.45 34.45 0 0010.96 15.401c.339.277.688.545 1.038.802.483.36.977.71 1.47 1.039.37.246.751.493 1.132.72.421.257.853.514 1.285.75a.352.352 0 01.103.041l.093.061a56.87 56.87 0 013.69 2.221c.401.258.802.524 1.192.803.515.37 1.039.74 1.543 1.131h.021c13.293 9.934 21.899 25.788 21.899 43.688z" fill="#a57561"/><path d="M148.572 197.629H39.507c0-15.124 6.147-28.809 16.09-38.679.463-.463.926-.905 1.408-1.347a53.985 53.985 0 014.493-3.742 55.59 55.59 0 013.177-2.18 49.617 49.617 0 013.331-1.975c.021-.021.042-.021.042-.021.441-.247.873-.493 1.306-.761a31.389 31.389 0 003.69-2.56c5.347 5.469 12.79 8.852 21.046 8.852 8.226 0 15.669-3.393 21.016-8.842.339.277.688.545 1.038.802.483.36.977.71 1.47 1.039.37.246.751.493 1.132.72.421.267.853.514 1.285.75a.352.352 0 01.103.041.46.46 0 01.093.052 53.21 53.21 0 013.69 2.23c.401.258.802.524 1.192.803.515.37 1.039.74 1.543 1.131h.021c13.293 9.933 21.899 25.787 21.899 43.687z" fill="#eb6d4a"/><path d="M52.183 46.81v34.117c0 28.977 25.437 52.466 41.857 52.466 16.421 0 41.858-23.489 41.858-52.466V46.81H52.183z" fill="#a57561"/><path d="M52.183 76.823a3.733 3.733 0 003.734-3.733V49.356h-3.734v27.467zM135.899 76.823V49.356h-3.733V73.09a3.731 3.731 0 003.733 3.733z" fill="#141720"/><path d="M135.893 48.33c0 4.884-.328 6.061-3.734 5.801-.137-2.367-17.141-4.296-38.111-4.296-20.985 0-37.989 1.929-38.126 4.296-3.406.26-3.734-.917-3.734-5.801 0-.479.014-.984.027-1.519.52-12.052 7.318-34.582 41.833-34.582 34.5 0 41.299 22.53 41.818 34.582.013.535.027 1.041.027 1.519z" fill="#141720"/></g><path d="M115.106 146.119c-3.517 10.826-10.601 21.539-21.036 30.299-10.436-8.76-17.509-19.473-21.025-30.299l.165.061a31.184 31.184 0 0020.86 7.979 31.152 31.152 0 0020.851-7.968c.061-.021.123-.051.185-.072z" clip-path="url(#b)" fill="#fff"/></svg>
